<?xml version="1.0" encoding="UTF-8"?>
<svg version="1.1" xmlns="http://www.w3.org/2000/svg" width="512" height="512">
<path d="M0 0 C4.06429926 3.63304504 6.77570641 7.96646988 9.71484375 12.50390625 C10.27457382 13.35879639 10.83430389 14.21368652 11.41099548 15.09448242 C12.62301442 16.94608144 13.83300734 18.79900788 15.04119873 20.65310669 C18.27830427 25.61962406 21.53128063 30.57570904 24.78515625 35.53125 C25.45720093 36.55513321 26.12924561 37.57901642 26.82165527 38.63392639 C35.27638877 51.49360117 43.90669285 64.23458983 52.54272461 76.97290039 C69 101.26259994 69 101.26259994 69 103 C50.52 103 32.04 103 13 103 C16.33165561 142.97986736 25.1886993 180.12478167 52 211 C52.69609375 211.80566406 53.3921875 212.61132812 54.109375 213.44140625 C83.27415471 246.48448113 123.5757754 268.63123541 168 272 C184.50112608 272.79376583 200.84450949 272.65404683 217 269 C217.76248047 268.83371094 218.52496094 268.66742188 219.31054688 268.49609375 C247.24386262 262.25788428 272.24394482 249.35566025 294.30078125 231.2421875 C298.82270068 227.93650847 304.6779991 228.3747376 310 229 C314.81761431 230.70690308 317.98602368 233.37143381 320.5 237.8125 C322.55259023 242.69656514 322.91152044 246.9092817 321.41015625 252 C317.41343922 261.43004203 307.49454278 267.37116465 299.25 272.8125 C297.8897168 273.710896 297.8897168 273.710896 296.50195312 274.62744141 C273.3751619 289.64229913 248.93849226 299.31636534 222 305 C221.16662109 305.17934082 220.33324219 305.35868164 219.47460938 305.54345703 C168.39398604 316.02393537 112.63699568 303.03234633 69.375 274.875 C67.56837043 273.60434591 65.77658229 272.3123367 64 271 C62.96230469 270.24460937 61.92460937 269.48921875 60.85546875 268.7109375 C53.26345987 263.0853426 46.26621703 256.91270699 39.44433594 250.38134766 C38.16198382 249.15491961 36.86702339 247.94170513 35.5703125 246.73046875 C29.50675483 240.9150638 24.39214932 234.46777649 19.34667969 227.7734375 C18.10979583 226.14458973 16.84147641 224.53973876 15.5703125 222.9375 C-4.35995942 196.79943846 -16.09339231 164.19563163 -20.8125 131.875 C-20.93665283 131.05386719 -21.06080566 130.23273438 -21.1887207 129.38671875 C-22.36006309 120.46549854 -22 112.22043124 -22 103 C-37.18 103 -52.36 103 -68 103 C-66.59830279 99.49575698 -65.60418992 97.16182394 -63.57104492 94.18334961 C-63.08313477 93.46324203 -62.59522461 92.74313446 -62.0925293 92.00120544 C-61.56054932 91.22608109 -61.02856934 90.45095673 -60.48046875 89.65234375 C-59.63669678 88.40959435 -59.63669678 88.40959435 -58.77587891 87.14173889 C-57.55583002 85.34521774 -56.33377697 83.55005638 -55.10995483 81.75610352 C-51.82308149 76.93706039 -48.55154949 72.10764418 -45.28125 67.27734375 C-44.6028154 66.27561127 -43.9243808 65.27387878 -43.22538757 64.24179077 C-34.53744926 51.39037709 -26.03783816 38.41462356 -17.5456543 25.43334961 C-11.8906272 16.80289657 -6.22164873 8.23727871 0 0 Z " fill="#FFFFFF" transform="translate(73,153)"/>
<path d="M0 0 C3.52446595 3.11883412 6.94993758 6.33320936 10.35693359 9.57958984 C11.13552734 10.30533203 11.91412109 11.03107422 12.71630859 11.77880859 C44.07174168 41.85556267 64.63226181 86.65544408 69.35693359 129.57958984 C69.35693359 132.21958984 69.35693359 134.85958984 69.35693359 137.57958984 C86.51693359 137.57958984 103.67693359 137.57958984 121.35693359 137.57958984 C120.49868641 141.01257859 119.90389705 142.57561055 118.04150391 145.39038086 C117.55351822 146.13377213 117.06553253 146.87716339 116.5627594 147.64308167 C116.02561813 148.44841843 115.48847687 149.25375519 114.93505859 150.08349609 C114.371129 150.93834091 113.8071994 151.79318573 113.22618103 152.67393494 C111.35891137 155.50054771 109.48314104 158.32140326 107.60693359 161.14208984 C106.30497383 163.10804807 105.00330123 165.0741965 103.7019043 167.04052734 C93.18781318 182.90592031 82.56732743 198.70000017 71.90283203 214.46459961 C71.32616791 215.31715836 70.74950378 216.1697171 70.15536499 217.04811096 C69.04697058 218.68502819 67.93718063 220.32100155 66.82583618 221.95591736 C64.46644427 225.43135447 62.12704072 228.91344303 59.8671875 232.45458984 C59.15868652 233.55802734 58.45018555 234.66146484 57.72021484 235.79833984 C56.83716675 237.2050293 56.83716675 237.2050293 55.9362793 238.64013672 C55.15450317 239.60016602 55.15450317 239.60016602 54.35693359 240.57958984 C53.36693359 240.57958984 52.37693359 240.57958984 51.35693359 240.57958984 C50.09036255 239.1985321 50.09036255 239.1985321 48.81445312 237.22290039 C48.32661346 236.47919693 47.8387738 235.73549347 47.33615112 234.96925354 C46.80933746 234.14328171 46.2825238 233.31730988 45.73974609 232.46630859 C45.17869171 231.60589462 44.61763733 230.74548065 44.0395813 229.85899353 C42.81913618 227.98526922 41.60338583 226.10848075 40.39172363 224.22906494 C37.14810084 219.19839155 33.87126795 214.18939281 30.59912109 209.17724609 C29.58579712 207.62194183 29.58579712 207.62194183 28.55200195 206.03521729 C20.76412391 194.09928741 12.77555841 182.30038562 4.77642822 170.50546265 C-6.70772213 153.56962739 -6.70772213 153.56962739 -11.97119141 145.47802734 C-13.04481934 143.82939697 -13.04481934 143.82939697 -14.14013672 142.14746094 C-15.64306641 139.57958984 -15.64306641 139.57958984 -15.64306641 137.57958984 C0.85693359 137.57958984 17.35693359 137.57958984 34.35693359 137.57958984 C25.99523804 90.19664836 6.46208673 46.89163998 -34.04199219 18.2824707 C-35.89328839 17.02209181 -37.76162213 15.79445698 -39.64306641 14.57958984 C-40.61397217 13.94682129 -40.61397217 13.94682129 -41.60449219 13.30126953 C-78.09370283 -10.13899543 -124.52190869 -19.98854136 -167.25244141 -10.96386719 C-193.65302127 -4.96226478 -218.41866575 5.60006932 -239.64306641 22.57958984 C-241.15886364 23.75279225 -242.67912647 24.92026838 -244.20556641 26.07958984 C-245.1046875 26.77568359 -245.1046875 26.77568359 -246.02197266 27.48583984 C-250.61847668 30.58709557 -256.35041536 30.20140404 -261.64306641 29.57958984 C-266.46068072 27.87268676 -269.62909008 25.20815603 -272.14306641 20.76708984 C-274.19565663 15.8830247 -274.55458684 11.67030814 -273.05322266 6.57958984 C-269.05650562 -2.85045219 -259.13760919 -8.79157481 -250.89306641 -14.23291016 C-249.98621094 -14.83184082 -249.07935547 -15.43077148 -248.14501953 -16.04785156 C-225.0182283 -31.06270929 -200.58155866 -40.7367755 -173.64306641 -46.42041016 C-172.8096875 -46.59975098 -171.97630859 -46.7790918 -171.11767578 -46.96386719 C-111.01761171 -59.2949113 -45.90744588 -39.68640715 0 0 Z " fill="#FFFFFF" transform="translate(390.64306640625,100.42041015625)"/>
</svg>
